<svg xmlns="http://www.w3.org/2000/svg" width="40" height="44" fill="none" viewBox="0 0 40 44"><path fill="#fff" d="M13.347 5.785h24.214c.92 0 1.666.746 1.666 1.666V41.9c0 .92-.746 1.666-1.666 1.666H13.347c-.92 0-1.665-.746-1.665-1.666V7.45c0-.92.745-1.666 1.665-1.666Z"/><path fill="#014459" stroke="#000" stroke-width=".5" d="M12.078 43.213c.298.298.68.48 1.092.526H37.582c.491-.01.951-.203 1.296-.547.345-.346.536-.805.536-1.293L39.392 7.45c0-1.005-.824-1.83-1.83-1.83h-24.21c-.492.01-.951.203-1.296.548a1.817 1.817 0 0 0-.536 1.293l.021 34.458c0 .489.192.948.537 1.293Zm1.532.177v.021h-.25c-.406 0-.774-.158-1.058-.443a1.476 1.476 0 0 1-.444-1.058L11.836 7.45c0-.406.159-.774.444-1.059a1.477 1.477 0 0 1 1.058-.443h23.964v-.011h.25c.822 0 1.502.666 1.502 1.502l.022 34.448c0 .406-.159.774-.444 1.058a1.477 1.477 0 0 1-1.058.444H13.61Z"/><path fill="#fff" d="M14.99 8.714h20.925c.457 0 .827.37.827.827V39.82c0 .457-.37.828-.827.828H14.989a.828.828 0 0 1-.827-.828V9.541c0-.457.37-.827.827-.827Z"/><path fill="#014459" d="M25.042 13.058h1.002a.62.62 0 0 1 .62.62v6.01a.62.62 0 0 1-.62.62h-1.002a.62.62 0 0 1-.62-.62v-6.01a.62.62 0 0 1 .62-.62Z"/><path fill="#014459" d="M22.526 15.562h6.01a.62.62 0 0 1 .62.62v1.002a.62.62 0 0 1-.62.62h-6.01a.62.62 0 0 1-.62-.62v-1.001a.62.62 0 0 1 .62-.62ZM19.404 30.848H31.5a.414.414 0 1 0 0-.828H19.404a.414.414 0 1 0 0 .828ZM19.404 33.755H31.5a.414.414 0 1 0 0-.827H19.404a.414.414 0 1 0 0 .827Z"/><path fill="#ACDAB9" d="M29.906 9.487V4.152H27.86c-.816 0-1.186-.109-1.1-.631.371-.664.371-1.503-.13-2.232A2.045 2.045 0 0 0 25.377.45a2.145 2.145 0 0 0-1.96.566c-.392.392-.62.925-.61 1.491 0 .36.088.708.262 1.013.087.512-.392.631-1.1.631H19.65v5.335H29.906Z"/><path fill="#014459" d="M19.662 9.912h10.245a.42.42 0 0 0 .294-.12.42.42 0 0 0 .12-.294V4.152a.416.416 0 0 0-.425-.413h-2.047c-.49 0-.653-.055-.697-.077v-.01c.425-.828.348-1.808-.185-2.592A2.425 2.425 0 0 0 25.465.06a2.56 2.56 0 0 0-2.341.675 2.503 2.503 0 0 0-.468 2.917c0-.01-.11.088-.697.088h-2.32a.414.414 0 0 0-.413.413v5.335c0 .229.185.414.414.414l.022.01Zm9.83-.828h-9.417V4.577h1.906c.5 0 1.045-.055 1.339-.403.109-.13.228-.37.174-.719 0-.043-.022-.087-.044-.13a1.615 1.615 0 0 1-.206-.806c0-.446.174-.87.49-1.198a1.71 1.71 0 0 1 1.578-.457c.392.087.762.327.99.664.382.556.425 1.22.11 1.786-.022.043-.044.087-.044.141-.043.305 0 .556.174.74.284.338.795.37 1.34.37h1.633v4.508l-.022.011Z"/><path fill="#125525" d="m3.733 15.563 1.425-1.518a.434.434 0 0 1 .278-.13l2.091-.184a.428.428 0 0 0 .25-.74L6.25 11.555a.435.435 0 0 1-.13-.278l-.185-2.091a.428.428 0 0 0-.74-.25l-1.434 1.527a.435.435 0 0 1-.278.13l-2.1.185c-.361.037-.519.48-.26.73l1.601 1.546c.074.074.12.167.13.278l.148 1.962c.028.37.481.527.74.259l-.009.009ZM3.399 5.754l.685-.731s.083-.056.13-.065l.999-.092a.203.203 0 0 0 .12-.352l-.731-.685s-.056-.083-.065-.13L4.444 2.7a.203.203 0 0 0-.351-.12l-.685.73s-.083.056-.13.066l-1.008.092a.203.203 0 0 0-.12.352l.768.74s.055.084.064.13l.074.944c.01.175.232.259.352.12h-.01Z"/></svg>