<svg xmlns="http://www.w3.org/2000/svg" width="52" height="43" fill="none" viewBox="0 0 52 43"><path fill="#6B45C6" d="m49.25 14.02-1.433 1.526a.437.437 0 0 1-.279.13l-2.101.186a.43.43 0 0 0-.251.744l1.534 1.441c.074.075.12.168.13.279l.186 2.102a.43.43 0 0 0 .744.25l1.441-1.534a.437.437 0 0 1 .28-.13l2.11-.186c.363-.037.52-.483.26-.734l-1.608-1.553a.437.437 0 0 1-.13-.28l-.15-1.97c-.027-.373-.483-.53-.743-.261l.01-.01ZM42.433 19.778l-.688.734s-.084.056-.13.066l-1.004.093a.204.204 0 0 0-.121.353l.734.688s.056.084.065.13l.093 1.004a.204.204 0 0 0 .354.121l.688-.734s.084-.056.13-.065l1.014-.093a.204.204 0 0 0 .12-.354l-.771-.744s-.056-.083-.065-.13l-.075-.948c-.009-.177-.232-.26-.353-.121h.01Z"/><path fill="#fff" d="M32.882 9.914H7.783v3.332h25.1V9.914ZM31.704 13.258H8.974v25.896h22.73V13.258Z"/><path fill="#fff" d="M40.2 26.813H.465v15.054H40.2V26.813Z"/><path fill="#014459" d="M40.201 42.166H.464A.465.465 0 0 1 0 41.702V26.826c0-.262.214-.465.464-.465h8.51c.261 0 .463.215.463.465s-.214.464-.464.464H.94v13.947h38.797V27.29h-3.356a.465.465 0 0 1-.464-.464c0-.25.214-.465.464-.465h3.82c.262 0 .464.215.464.465v14.876a.465.465 0 0 1-.464.464Z"/><path fill="#014459" d="M31.705 39.617H8.974a.465.465 0 0 1-.464-.464V13.411c0-.261.214-.464.464-.464s.464.215.464.464v25.266H31.24v-6.7c0-.262.215-.464.465-.464s.464.214.464.464v7.164a.465.465 0 0 1-.464.464v.012Z"/><path fill="#fff" d="M40.2 39.154H.465v2.714H40.2v-2.714Z"/><path fill="#014459" d="M40.201 42.331H.464A.465.465 0 0 1 0 41.867v-2.713c0-.262.214-.465.464-.465h39.737c.262 0 .464.215.464.465v2.713a.465.465 0 0 1-.464.464Zm-39.26-.928h38.796v-1.785H.94v1.785Z"/><path fill="#B9A1F4" d="M3.833 29.455H2.678a.238.238 0 0 0-.238.238v1.69c0 .132.107.238.238.238h1.155a.238.238 0 0 0 .238-.238v-1.69a.238.238 0 0 0-.238-.238ZM6.606 29.455H5.452a.238.238 0 0 0-.238.238v1.69c0 .132.106.238.238.238h1.154a.238.238 0 0 0 .238-.238v-1.69a.238.238 0 0 0-.238-.238ZM35.225 29.455h-1.154a.238.238 0 0 0-.238.238v1.69c0 .132.107.238.238.238h1.154a.238.238 0 0 0 .238-.238v-1.69a.238.238 0 0 0-.238-.238ZM37.999 29.455h-1.155a.238.238 0 0 0-.238.238v1.69c0 .132.107.238.238.238H38a.238.238 0 0 0 .238-.238v-1.69a.238.238 0 0 0-.238-.238Z"/><path fill="#014459" d="M32.882 13.793h-2.725a.465.465 0 0 1-.464-.464c0-.25.214-.465.464-.465h2.25v-2.463h-8.081a.465.465 0 0 1-.465-.464c0-.25.215-.464.465-.464h8.544c.262 0 .464.214.464.464v3.403a.465.465 0 0 1-.464.465l.012-.012ZM14.317 13.793H7.783a.465.465 0 0 1-.464-.464V9.925c0-.262.215-.464.464-.464h6.772c.262 0 .464.214.464.464s-.214.464-.464.464H8.26v2.464h6.069c.262 0 .464.214.464.464s-.214.464-.464.464l-.012.012Z"/><path fill="#fff" d="M27.527 32.287H13.15v6.867h14.377v-6.867Z"/><path fill="#B9A1F4" d="M26.174 32.553H14.192c-.647 0-1.17.034-1.17.65v4.743c0 .617.523 1.117 1.17 1.117h11.982c.647 0 1.17-.5 1.17-1.117V33.67c0-.617-.523-1.117-1.17-1.117Z"/><path fill="#014459" d="M27.527 39.617H13.15a.465.465 0 0 1-.464-.464v-6.867c0-.261.214-.464.464-.464h14.376c.262 0 .464.214.464.464v6.867a.465.465 0 0 1-.464.464Zm-13.912-.94H27.05v-5.926H13.615v5.926Z"/><path fill="#fff" d="M13.523 24.848a2.87 2.87 0 0 0 2.868 2.869 2.87 2.87 0 0 0 2.868-2.869 2.86 2.86 0 0 0-2.868-2.856 2.867 2.867 0 0 0-2.868 2.856Z"/><path fill="#014459" d="M16.39 28.36a3.51 3.51 0 0 1-3.51-3.511 3.51 3.51 0 0 1 3.51-3.511 3.51 3.51 0 0 1 3.511 3.51 3.51 3.51 0 0 1-3.51 3.511Zm0-5.725a2.217 2.217 0 0 0-2.213 2.214 2.21 2.21 0 0 0 2.214 2.213 2.21 2.21 0 0 0 2.213-2.213 2.21 2.21 0 0 0-2.213-2.214Z"/><path fill="#B9A1F4" d="M14.997 24.85a1.381 1.381 0 0 0 2.761 0 1.381 1.381 0 0 0-2.76 0ZM27.718 12.354a.465.465 0 0 1-.464-.464V3.178A2.336 2.336 0 0 1 29.586.846h.893c.262 0 .464.214.464.464s-.214.464-.464.464h-.892c-.774 0-1.405.63-1.405 1.404v8.712a.465.465 0 0 1-.464.464ZM42.487 12.354a.465.465 0 0 1-.464-.464V3.178c0-.773-.63-1.404-1.404-1.404h-.976a.465.465 0 0 1-.464-.464c0-.25.214-.464.464-.464h.976a2.336 2.336 0 0 1 2.332 2.332v8.712a.465.465 0 0 1-.464.464Z"/><path fill="#014459" d="M35.098 19.73c-4.332 0-7.855-3.522-7.855-7.854 0-.262.214-.464.464-.464s.464.214.464.464a6.92 6.92 0 0 0 6.915 6.915c3.808 0 6.914-3.107 6.914-6.915 0-.262.215-.464.464-.464.25 0 .465.214.465.464 0 4.332-3.523 7.855-7.855 7.855h.024ZM32.014 1.119C32.014.5 31.516 0 30.902 0c-.615 0-1.113.5-1.113 1.119v.523c0 .618.498 1.119 1.113 1.119.614 0 1.112-.5 1.112-1.119V1.12ZM40.429 1.119C40.429.5 39.93 0 39.316 0c-.615 0-1.113.5-1.113 1.119v.523c0 .618.498 1.119 1.113 1.119.614 0 1.113-.5 1.113-1.119V1.12Z"/><path fill="#014459" d="M29.717 30.478a5.846 5.846 0 0 1-5.843-5.843V14.007c0-.262.214-.464.464-.464s.464.214.464.464v10.616a4.917 4.917 0 0 0 4.915 4.915 4.916 4.916 0 0 0 4.915-4.915v-4.999c0-.261.215-.464.465-.464s.464.214.464.464v4.999a5.846 5.846 0 0 1-5.844 5.843v.012Z"/><path fill="#014459" d="M24.339 22.48a.465.465 0 0 1-.464-.464V10.972a3.51 3.51 0 0 0-3.511-3.51 3.51 3.51 0 0 0-3.51 3.51v11.032a.465.465 0 0 1-.465.464.473.473 0 0 1-.464-.464V10.972c0-2.451 2-4.439 4.439-4.439 2.44 0 4.439 2 4.439 4.44v11.031a.465.465 0 0 1-.464.464v.012ZM20.67 34.191h-.666a.345.345 0 0 0-.345.345v2.857c0 .19.155.345.345.345h.667c.19 0 .345-.155.345-.345v-2.857a.345.345 0 0 0-.345-.345Z"/><path fill="#014459" d="M21.767 35.285H18.91a.345.345 0 0 0-.346.345v.667c0 .19.155.345.346.345h2.856c.19 0 .345-.155.345-.345v-.667a.345.345 0 0 0-.345-.345Z"/></svg>