<svg xmlns="http://www.w3.org/2000/svg" width="47" height="40" fill="none" viewBox="0 0 47 40"><path fill="#E39F17" d="m43.187 21.224 1.25 1.33a.38.38 0 0 0 .243.115l1.834.162a.375.375 0 0 1 .22.649l-1.34 1.258a.381.381 0 0 0-.113.243l-.163 1.834a.375.375 0 0 1-.649.22l-1.257-1.34a.38.38 0 0 0-.244-.113l-1.842-.163c-.316-.032-.454-.422-.227-.64l1.404-1.356a.38.38 0 0 0 .113-.243l.13-1.72c.025-.325.422-.463.65-.228l-.009-.008ZM45.247 16.767l.6.64s.073.05.114.058l.876.08c.154.017.22.203.105.309l-.64.6s-.05.073-.057.114l-.081.876a.178.178 0 0 1-.309.106l-.6-.641s-.073-.049-.114-.057l-.884-.081a.178.178 0 0 1-.106-.308l.674-.65s.048-.073.056-.113l.065-.828c.008-.154.203-.227.309-.105h-.008Z"/><path fill="#fff" d="M5.543 35.35V14.675a1.95 1.95 0 0 1 1.953-1.952H38.01a1.95 1.95 0 0 1 1.953 1.952V35.35H5.543Z"/><path fill="#fff" d="M37.465 28.685v4.092c0 .229-.186.414-.415.414H8.466a.414.414 0 0 1-.414-.414v-17.14c0-.229.185-.414.414-.414h28.999v13.462Z"/><path fill="#121414" d="M32.38 15.636H30.7a.414.414 0 1 1 0-.83h1.68a.414.414 0 1 1 0 .83Z"/><path fill="#fff" d="M20.741 22.389a2.556 2.556 0 0 0 2.553 2.553 2.556 2.556 0 0 0 2.553-2.553 2.556 2.556 0 0 0-2.553-2.553 2.556 2.556 0 0 0-2.553 2.553Z"/><path fill="#121414" d="M23.294 25.52a3.138 3.138 0 0 1-3.13-3.131 3.138 3.138 0 0 1 3.13-3.131 3.138 3.138 0 0 1 3.131 3.13 3.138 3.138 0 0 1-3.13 3.132Zm0-5.106a1.974 1.974 0 1 0 0 3.949 1.974 1.974 0 0 0 0-3.949Z"/><path fill="#E39F17" d="M22.06 22.39a1.232 1.232 0 1 0 2.464.001 1.232 1.232 0 0 0-2.463-.002Z"/><path fill="#121414" d="M13.823 17.742h-1.058a.327.327 0 0 0-.328.328v4.702c0 .18.147.327.328.327h1.058c.18 0 .327-.147.327-.327V18.07a.327.327 0 0 0-.327-.328Z"/><path fill="#121414" d="M15.646 19.564h-4.703a.327.327 0 0 0-.327.328v1.058c0 .18.147.327.328.327h4.702c.18 0 .327-.146.327-.327v-1.058a.327.327 0 0 0-.327-.328Z"/><path fill="#121414" d="m38.468 37.25-31.453-.044a1.876 1.876 0 0 1-1.876-1.877V14.328c0-1.037.84-1.877 1.876-1.877H22.66a.414.414 0 1 1 0 .83H7.015c-.578 0-1.047.468-1.047 1.047v21.001c0 .578.469 1.047 1.047 1.047l31.453.044a1.039 1.039 0 0 0 1.048-1.047v-6.895a.414.414 0 1 1 .829 0v6.895c0 .502-.197.97-.557 1.33-.36.36-.829.546-1.33.546h.01ZM39.93 15.636a.414.414 0 0 1-.415-.414v-.906c0-.578-.47-1.047-1.047-1.047H35.98a.414.414 0 1 1 0-.83h2.488c1.036 0 1.876.84 1.876 1.877v.905c0 .23-.186.415-.415.415ZM30.297 13.28h-3.011a.414.414 0 1 1 0-.829h3.01a.414.414 0 1 1 0 .83Z"/><path fill="#E39F17" d="M33.407 11.24a.414.414 0 0 1-.415-.415V3.047A2.09 2.09 0 0 1 35.076.963h.796a.414.414 0 1 1 0 .829h-.796c-.687 0-1.255.556-1.255 1.255v7.768c0 .229-.185.414-.414.414v.011ZM46.586 11.24a.414.414 0 0 1-.415-.415V3.047c0-.688-.556-1.255-1.255-1.255h-.872a.414.414 0 1 1 0-.83h.872A2.09 2.09 0 0 1 47 3.048v7.768c0 .229-.185.414-.414.414v.011Z"/><path fill="#121414" d="M39.996 17.829a7.012 7.012 0 0 1-7.004-7.004.414.414 0 1 1 .83 0A6.183 6.183 0 0 0 39.995 17a6.183 6.183 0 0 0 6.175-6.175.414.414 0 1 1 .83 0 7.012 7.012 0 0 1-7.005 7.004ZM37.235 1.214a.993.993 0 0 0-1.986 0v.48a.993.993 0 0 0 1.986 0v-.48ZM44.752 1.214a.993.993 0 0 0-1.985 0v.48a.993.993 0 0 0 1.985 0v-.48Z"/><path fill="#121414" d="M35.195 27.408a5.222 5.222 0 0 1-5.215-5.215v-9.47a.414.414 0 1 1 .83 0v9.47a4.393 4.393 0 0 0 4.385 4.386 4.386 4.386 0 0 0 4.386-4.386V17.73a.414.414 0 1 1 .83 0v4.462a5.222 5.222 0 0 1-5.216 5.215Z"/><path fill="#121414" d="M30.396 20.274a.414.414 0 0 1-.415-.414v-9.841a3.138 3.138 0 0 0-3.131-3.131 3.138 3.138 0 0 0-3.131 3.13v9.842a.414.414 0 1 1-.83 0v-9.841a3.967 3.967 0 0 1 3.96-3.96 3.967 3.967 0 0 1 3.961 3.96v9.84c0 .23-.185.415-.414.415Z"/><path fill="#fff" d="M43.464 35.352H2.051c-.904 0-1.637.73-1.637 1.63 0 .901.733 1.632 1.637 1.632h41.413c.904 0 1.637-.73 1.637-1.631s-.733-1.631-1.637-1.631Z"/><rect width="45.237" height="3.525" y="35.471" fill="#F8C152" rx="1.762"/><path fill="#121414" d="M43.465 39.028H2.05A2.049 2.049 0 0 1 0 36.977c0-1.135.916-2.051 2.051-2.051h41.414c1.134 0 2.051.916 2.051 2.05a2.049 2.049 0 0 1-2.051 2.052ZM2.05 35.766c-.665 0-1.21.545-1.21 1.21 0 .666.545 1.212 1.21 1.212h41.414c.665 0 1.21-.546 1.21-1.211 0-.666-.545-1.211-1.21-1.211H2.05Z"/></svg>